<svg width="1400" height="1400" viewBox="0 0 1400 1400" fill="none" xmlns="http://www.w3.org/2000/svg">
<rect x="30" y="30" width="1340" height="1340" fill="#373737" stroke="#B9D134" stroke-width="60"/>
<rect x="60" y="60" width="1280" height="1280" stroke="url(#paint0_radial_369_1416)" stroke-width="120"/>
<path d="M242.864 458.056C233.136 454.984 224.091 451.229 215.728 446.792V485.576H205.872V444.36H211.504C202.715 439.155 195.632 433.523 190.256 427.464C185.051 433.181 177.712 438.771 168.24 444.232H175.664V451.016C175.664 458.184 173.616 464.712 169.52 470.6C165.509 476.403 158.811 481.907 149.424 487.112L143.408 478.92C152.027 474.739 157.957 470.515 161.2 466.248C164.443 461.981 166.064 456.904 166.064 451.016V445.512C157.36 450.291 147.675 454.557 137.008 458.312L132.912 449.352C152.368 443.379 168.453 434.931 181.168 424.008H145.456V373.704H234.544V424.008H198.32C210.011 434.931 226.181 443.251 246.832 448.968L242.864 458.056ZM185.392 395.208V382.28H154.928V395.208H185.392ZM194.48 395.208H225.072V382.28H194.48V395.208ZM185.392 402.888H154.928V415.688H185.392V402.888ZM194.48 402.888V415.688H225.072V402.888H194.48ZM372.528 383.432H321.84L316.08 399.176H366V485.576H356.528V477H278.704V485.576H269.488V399.176H305.456C308.101 392.179 309.979 386.931 311.088 383.432H262.704V374.6H372.528V383.432ZM295.856 408.008H278.704V468.552H295.856V408.008ZM304.816 422.472H330.288V408.008H304.816V422.472ZM339.504 468.552H356.528V408.008H339.504V468.552ZM304.816 445.384H330.288V430.92H304.816V445.384ZM330.288 453.96H304.816V468.552H330.288V453.96ZM484.4 384.584H443.952V445.384H434.992V374.984H493.36V445.256H484.4V384.584ZM431.536 455.624L432.304 460.872L404.144 468.68C395.867 471.069 391.045 472.435 389.68 472.776L387.76 463.56C389.211 463.219 392.709 462.237 398.256 460.616L405.296 458.696V425.928H390.832V416.456H405.296V388.04H389.552V378.568H429.616V388.04H414.256V416.456H428.976V425.928H414.256V456.136L430.896 451.272L431.536 455.624ZM501.424 453.96C501.424 457.971 501.253 462.963 500.912 468.936C500.741 472.52 500.229 475.251 499.376 477.128C498.523 479.005 497.072 480.328 495.024 481.096C492.976 481.864 490.032 482.248 486.192 482.248H476.208C471.429 482.248 468.101 481.267 466.224 479.304C464.347 477.341 463.408 473.885 463.408 468.936V446.408C460.592 454.429 456.24 461.64 450.352 468.04C444.464 474.44 436.571 480.627 426.672 486.6L420.656 478.024C430.213 472.563 437.637 467.187 442.928 461.896C448.219 456.52 452.101 450.419 454.576 443.592C457.051 436.765 458.501 428.232 458.928 417.992C459.099 414.493 459.227 410.227 459.312 405.192C459.397 400.072 459.44 395.763 459.44 392.264H468.144C468.144 395.848 468.101 400.328 468.016 405.704C467.931 411.08 467.845 415.603 467.76 419.272C467.675 425.672 466.992 431.987 465.712 438.216H472.24V465.352C472.24 467.571 472.411 469.192 472.752 470.216C473.179 471.24 473.904 471.923 474.928 472.264C475.952 472.605 477.573 472.776 479.792 472.776H484.784C487.088 472.776 488.752 472.605 489.776 472.264C490.885 471.923 491.653 471.283 492.08 470.344C492.507 469.32 492.763 467.699 492.848 465.48C493.019 462.835 493.104 458.312 493.104 451.912L501.424 453.96ZM629.808 451.528C628.357 459.976 627.077 465.949 625.968 469.448C624.347 474.824 622.256 478.621 619.696 480.84C617.221 483.059 614.107 484.168 610.352 484.168C607.195 484.168 604.251 483.272 601.52 481.48C598.875 479.688 596.059 476.616 593.072 472.264C585.904 461.853 580.827 444.019 577.84 418.76L551.216 421.448L550.448 411.72L576.944 409.032C576.432 404.339 576.048 399.304 575.792 393.928L574.512 368.84H584.24L585.392 394.312C585.563 397.981 585.904 402.589 586.416 408.136L628.912 403.784L629.552 413.512L587.44 417.736C588.805 429.683 590.683 439.795 593.072 448.072C595.547 456.264 598.235 462.365 601.136 466.376C602.843 468.851 604.379 470.557 605.744 471.496C607.195 472.435 608.688 472.904 610.224 472.904C611.675 472.904 612.827 472.691 613.68 472.264C614.619 471.837 615.429 470.941 616.112 469.576C616.88 468.125 617.605 465.992 618.288 463.176C619.483 457.971 620.592 452.723 621.616 447.432L629.808 451.528ZM555.184 372.424C551.941 382.067 548.144 391.624 543.792 401.096V485.448H534.192V419.4C529.84 426.824 525.232 433.693 520.368 440.008L516.4 428.616C521.947 422.045 527.323 413.384 532.528 402.632C537.819 391.88 542.213 380.829 545.712 369.48L555.184 372.424ZM615.728 398.792C612.741 395.805 609.115 392.349 604.848 388.424C600.667 384.413 597.381 381.384 594.992 379.336L600.368 372.936C603.525 375.581 607.237 378.781 611.504 382.536C615.856 386.291 619.227 389.32 621.616 391.624L615.728 398.792ZM685.616 371.784C682.544 381.427 678.533 391.24 673.584 401.224V485.064H663.472V419.016C658.949 426.269 653.829 433.267 648.112 440.008L645.168 427.592C650.971 420.765 656.688 412.019 662.32 401.352C668.037 390.6 672.773 379.677 676.528 368.584L685.616 371.784ZM757.168 444.616L757.04 448.456C756.528 459.464 756.229 465.523 756.144 466.632C755.717 472.008 754.224 475.763 751.664 477.896C749.104 480.115 744.709 481.224 738.48 481.224H719.92C715.653 481.224 712.283 480.712 709.808 479.688C707.419 478.749 705.669 477.085 704.56 474.696C703.451 472.221 702.896 468.808 702.896 464.456V440.136C697.093 444.232 690.779 448.371 683.952 452.552L678.832 443.208C687.707 437.917 695.728 432.627 702.896 427.336V369.352H713.264V419.4C725.723 409.416 737.328 398.109 748.08 385.48L754.992 392.904C741.68 408.093 727.771 421.277 713.264 432.456V462.024C713.264 465.779 713.861 468.296 715.056 469.576C716.336 470.856 718.768 471.496 722.352 471.496H736.688C740.528 471.496 743.131 470.941 744.496 469.832C745.861 468.637 746.629 466.376 746.8 463.048C746.971 459.891 747.141 456.221 747.312 452.04C747.483 447.859 747.568 444.616 747.568 442.312L757.168 444.616ZM881.2 464.328C874.459 456.819 868.187 448.413 862.384 439.112C856.581 429.811 851.76 420.253 847.92 410.44V454.6H867.376V463.816H847.92V485.832H838.192V463.816H818.608V454.6H838.192V410.44C834.437 420.424 829.787 429.853 824.24 438.728C818.779 447.603 812.165 456.392 804.4 465.096L798.128 455.88C813.744 439.923 825.605 421.533 833.712 400.712H806.32V391.624H838.192V368.712H847.92V391.624H882.608V400.712H852.784C856.709 410.867 861.616 420.552 867.504 429.768C873.477 438.899 880.005 447.091 887.088 454.344L881.2 464.328ZM807.216 371.144C804.485 380.701 800.987 390.557 796.72 400.712V485.32H787.504V419.656C783.92 426.227 780.165 432.157 776.24 437.448L771.632 426.696C776.325 419.955 781.019 411.379 785.712 400.968C790.491 390.472 794.331 379.976 797.232 369.48L807.216 371.144ZM954.032 410.312C951.131 413.128 948.059 415.816 944.816 418.376L939.824 409.544C946.992 404.339 953.392 398.323 959.024 391.496C964.741 384.669 969.52 377.16 973.36 368.968H981.936C985.605 377.331 990.299 384.968 996.016 391.88C1001.73 398.792 1008.13 404.808 1015.22 409.928L1010.74 418.376C1008.01 416.328 1004.76 413.597 1001.01 410.184V419.016H954.032V410.312ZM938.8 375.24L935.856 424.392H941.744C941.573 429.171 941.317 436.296 940.976 445.768C940.635 455.155 940.336 462.365 940.08 467.4C939.909 471.325 939.269 474.312 938.16 476.36C937.051 478.408 935.301 479.816 932.912 480.584C930.608 481.437 927.323 481.864 923.056 481.864H910.896L909.232 473.672H920.624C923.696 473.672 925.957 473.459 927.408 473.032C928.944 472.605 930.011 471.752 930.608 470.472C931.205 469.192 931.547 467.229 931.632 464.584L932.912 432.712H906.416L909.36 389.32H917.296L914.992 424.392H927.664L930.224 383.944H902.704V375.24H938.8ZM977.712 379.08C971.909 390.173 964.144 400.456 954.416 409.928H1000.75C991.365 401.053 983.685 390.771 977.712 379.08ZM977.072 459.208C976.048 454.515 974.683 448.925 972.976 442.44C971.269 435.869 969.776 430.579 968.496 426.568L976.304 424.136C977.499 428.061 978.992 433.395 980.784 440.136C982.576 446.792 983.984 452.381 985.008 456.904L977.072 459.208ZM1005.62 427.848C1003.99 433.565 1001.86 440.563 999.216 448.84C996.571 457.117 994.139 464.456 991.92 470.856H1011.38V479.944H944.816V470.856H983.344C985.989 463.688 988.635 455.88 991.28 447.432C994.011 438.984 996.187 431.56 997.808 425.16L1005.62 427.848ZM957.616 463.56C956.165 457.331 953.051 445.469 948.272 427.976L955.44 425.672C956.72 429.853 958.341 435.443 960.304 442.44C962.267 449.352 963.973 455.581 965.424 461.128L957.616 463.56ZM928.432 453.832C922.8 454.856 917.765 455.709 913.328 456.392L902.192 458.312L901.296 449.48C904.795 449.139 913.712 447.816 928.048 445.512L928.432 453.832ZM1065.01 371.528C1061.85 381.768 1058.22 391.368 1054.13 400.328V485.576H1044.53V418.888C1040.52 425.715 1036.29 431.901 1031.86 437.448L1028.66 425.544C1033.52 419.485 1038.43 411.208 1043.38 400.712C1048.33 390.216 1052.38 379.592 1055.54 368.84L1065.01 371.528ZM1139.89 408.264H1095.6C1095 419.869 1093.68 429.896 1091.63 438.344C1089.58 446.707 1086.43 454.6 1082.16 462.024C1077.89 469.448 1072.05 477.256 1064.62 485.448L1056.69 478.664C1063.77 471.24 1069.27 464.2 1073.2 457.544C1077.21 450.803 1080.15 443.592 1082.03 435.912C1083.99 428.232 1085.27 419.016 1085.87 408.264H1062.06V398.792H1086.26V397.384L1086.64 368.84H1096.5L1095.98 398.28V398.792H1139.89V408.264ZM1125.81 394.824C1124.44 393.373 1119.58 388.723 1111.22 380.872L1108.14 378.056L1114.03 371.656C1122.99 379.592 1128.97 385.053 1131.95 388.04L1125.81 394.824ZM1141.3 446.664C1141.3 449.395 1141.21 452.936 1141.04 457.288C1140.95 461.64 1140.87 465.096 1140.78 467.656C1140.61 471.581 1140.02 474.568 1138.99 476.616C1137.97 478.579 1136.39 479.901 1134.26 480.584C1132.12 481.352 1129.09 481.736 1125.17 481.736H1115.95C1111.34 481.736 1107.93 480.627 1105.71 478.408C1103.49 476.275 1102.38 472.477 1102.38 467.016V414.664H1111.98V464.2C1111.98 467.357 1112.5 469.491 1113.52 470.6C1114.54 471.709 1116.46 472.264 1119.28 472.264H1124.78C1126.75 472.264 1128.2 472.093 1129.14 471.752C1130.07 471.325 1130.71 470.6 1131.06 469.576C1131.48 468.467 1131.74 466.76 1131.82 464.456L1132.21 444.744L1141.3 446.664ZM1197.62 371.784C1194.54 381.427 1190.53 391.24 1185.58 401.224V485.064H1175.47V419.016C1170.95 426.269 1165.83 433.267 1160.11 440.008L1157.17 427.592C1162.97 420.765 1168.69 412.019 1174.32 401.352C1180.04 390.6 1184.77 379.677 1188.53 368.584L1197.62 371.784ZM1269.17 444.616L1269.04 448.456C1268.53 459.464 1268.23 465.523 1268.14 466.632C1267.72 472.008 1266.22 475.763 1263.66 477.896C1261.1 480.115 1256.71 481.224 1250.48 481.224H1231.92C1227.65 481.224 1224.28 480.712 1221.81 479.688C1219.42 478.749 1217.67 477.085 1216.56 474.696C1215.45 472.221 1214.9 468.808 1214.9 464.456V440.136C1209.09 444.232 1202.78 448.371 1195.95 452.552L1190.83 443.208C1199.71 437.917 1207.73 432.627 1214.9 427.336V369.352H1225.26V419.4C1237.72 409.416 1249.33 398.109 1260.08 385.48L1266.99 392.904C1253.68 408.093 1239.77 421.277 1225.26 432.456V462.024C1225.26 465.779 1225.86 468.296 1227.06 469.576C1228.34 470.856 1230.77 471.496 1234.35 471.496H1248.69C1252.53 471.496 1255.13 470.941 1256.5 469.832C1257.86 468.637 1258.63 466.376 1258.8 463.048C1258.97 459.891 1259.14 456.221 1259.31 452.04C1259.48 447.859 1259.57 444.616 1259.57 442.312L1269.17 444.616Z" fill="white"/>
<path d="M194.736 176.456V201.544H238.64V254.28H194.736V293.704H184.88V254.28H141.36V201.544H184.88V176.456H194.736ZM151.344 211.528V244.424H184.88V211.528H151.344ZM194.736 211.528V244.424H228.656V211.528H194.736ZM290.992 180.808H345.136V233.16H290.992V180.808ZM278.32 186.568V241.992H310.064V293.704H301.232V268.872H286.768C286 274.845 284.08 279.923 281.008 284.104C278.021 288.285 273.669 292.168 267.952 295.752L262.448 288.328C267.227 285.597 270.853 282.696 273.328 279.624C275.803 276.552 277.339 272.968 277.936 268.872H262.704V260.296H301.232V250.568H269.488V186.568H278.32ZM334.64 250.568V260.296H367.152V293.576H358.32V268.872H334.64V293.704H325.936V241.992H357.552V186.568H366.512V250.568H334.64ZM336.432 196.168V188.232H299.568V196.168H336.432ZM336.432 203.08H299.568V210.888H336.432V203.08ZM299.568 217.8V225.608H336.432V217.8H299.568ZM414.896 206.792C409.861 199.965 403.845 192.328 396.848 183.88L404.528 177.608C406.832 180.168 409.776 183.667 413.36 188.104C416.944 192.541 420.144 196.595 422.96 200.264L414.896 206.792ZM448.56 198.856C448.56 203.72 447.152 208.285 444.336 212.552C441.52 216.819 436.997 220.915 430.768 224.84L423.728 217.8C427.824 215.069 430.939 212.637 433.072 210.504C435.205 208.285 436.699 205.981 437.552 203.592C438.491 201.117 438.96 198.173 438.96 194.76V182.216H484.912V203.592C484.912 206.067 485.381 207.688 486.32 208.456C487.259 209.224 489.051 209.608 491.696 209.608H502.064L500.784 218.696H487.216C482.693 218.781 479.493 218.056 477.616 216.52C475.824 214.984 474.928 212.125 474.928 207.944V191.048H448.56V198.856ZM427.952 256.84L431.664 265.928L405.296 287.688L399.152 280.264C400.773 278.557 401.797 277.235 402.224 276.296C402.736 275.357 402.992 274.163 402.992 272.712V226.888H389.552V217.544H412.592V269.512L427.952 256.84ZM498.608 293.576C484.187 288.029 472.155 281.8 462.512 274.888C452.784 281.885 440.283 288.243 425.008 293.96L419.888 285C433.627 280.307 445.232 274.845 454.704 268.616C445.147 260.253 437.595 250.099 432.048 238.152V229.192H491.824V238.28C486.619 250.483 479.323 260.723 469.936 269C478.811 274.888 489.776 279.88 502.832 283.976L498.608 293.576ZM442.416 238.152C447.451 248.051 453.979 256.371 462 263.112C470.619 256.029 477.019 247.709 481.2 238.152H442.416ZM584.624 218.312C595.888 222.493 611.12 225.949 630.32 228.68L627.504 238.408C615.813 236.531 605.531 234.397 596.656 232.008C587.867 229.619 580.016 226.845 573.104 223.688C558.171 230.003 540.635 234.952 520.496 238.536L517.68 229.448C535.003 226.461 549.936 222.664 562.48 218.056C555.824 213.96 549.637 209.011 543.92 203.208C537.776 209.181 531.675 214.259 525.616 218.44L519.728 210.632C526.555 206.109 533.083 200.52 539.312 193.864C545.541 187.123 550.448 180.808 554.032 174.92L564.272 177.608C562.48 180.595 560.347 183.752 557.872 187.08H616.496V196.68C606.939 205.213 596.315 212.424 584.624 218.312ZM550.192 196.424C557.189 203.592 564.955 209.267 573.488 213.448C584.667 208.499 594.309 202.611 602.416 195.784H550.832L550.192 196.424ZM540.72 294.472H531.504V239.176H616.112V294.472H606.768V287.944H540.72V294.472ZM569.136 259.656V247.496H540.72V259.656H569.136ZM578.352 259.656H606.768V247.496H578.352V259.656ZM540.72 267.72V279.88H569.136V267.72H540.72ZM578.352 267.72V279.88H606.768V267.72H578.352Z" fill="white"/>
<path d="M585.84 767.04V840H577.584V767.04H585.84ZM600.35 840V789.12H608.318V796.32H608.798C610.334 793.76 612.574 791.712 615.518 790.176C618.526 788.576 621.534 787.776 624.542 787.776C630.174 787.776 634.59 789.536 637.79 793.056C640.99 796.512 642.59 801.408 642.59 807.744V840H634.622V808.896C634.622 804.8 633.47 801.472 631.166 798.912C628.862 796.352 625.982 795.072 622.526 795.072C618.302 795.072 614.878 796.448 612.254 799.2C609.63 801.888 608.318 805.44 608.318 809.856V840H600.35ZM681.575 796.608H666.887V825.792C666.887 828.608 667.623 830.784 669.095 832.32C670.567 833.856 672.615 834.624 675.239 834.624C676.775 834.624 678.503 834.304 680.423 833.664V840.96C678.695 841.664 676.423 842.016 673.607 842.016C668.871 842.016 665.223 840.672 662.663 837.984C660.167 835.296 658.919 831.424 658.919 826.368V796.608H650.951V789.12H658.919V772.992H666.887V789.12H681.575V796.608ZM731.933 810.24C731.933 812.48 731.741 814.656 731.357 816.768H695.453C695.773 822.08 697.341 826.272 700.157 829.344C702.973 832.416 706.717 833.952 711.389 833.952C714.013 833.952 716.477 833.312 718.781 832.032C721.085 830.752 723.069 828.864 724.733 826.368L730.973 830.688C726.429 837.728 719.901 841.248 711.389 841.248C703.901 841.248 697.981 838.88 693.629 834.144C689.341 829.408 687.197 822.912 687.197 814.656C687.197 806.336 689.245 799.776 693.341 794.976C697.437 790.176 703.069 787.776 710.237 787.776C716.957 787.776 722.237 789.792 726.077 793.824C729.981 797.856 731.933 803.328 731.933 810.24ZM723.773 809.568C723.773 805.152 722.525 801.632 720.029 799.008C717.597 796.384 714.333 795.072 710.237 795.072C706.397 795.072 703.197 796.352 700.637 798.912C698.077 801.472 696.445 805.024 695.741 809.568H723.773ZM743.225 840V789.12H751.193V798.816H751.673C753.785 795.36 756.473 792.672 759.737 790.752C763.001 788.768 766.617 787.776 770.585 787.776H771.257V796.416H770.393C766.489 796.416 763.097 797.056 760.217 798.336C757.337 799.616 755.097 801.376 753.497 803.616C751.961 805.792 751.193 808.16 751.193 810.72V840H743.225ZM798.9 772.992C796.34 772.992 794.228 773.792 792.564 775.392C790.9 776.992 790.068 779.264 790.068 782.208V789.12H803.988V796.608H790.068V840H782.1V796.608H774.42V789.12H782.1V782.016C782.1 776.896 783.444 772.896 786.132 770.016C788.82 767.136 792.5 765.696 797.172 765.696C799.988 765.696 802.388 766.08 804.372 766.848V774.048C802.58 773.344 800.756 772.992 798.9 772.992ZM824.919 841.344C819.991 841.344 816.055 840.064 813.111 837.504C810.231 834.88 808.791 831.424 808.791 827.136C808.791 816.128 817.175 810.624 833.943 810.624H841.239V806.496C841.239 803.04 840.183 800.288 838.071 798.24C835.959 796.128 833.175 795.072 829.719 795.072C825.431 795.072 821.143 796.928 816.855 800.64L812.151 795.264C817.271 790.272 823.255 787.776 830.103 787.776C835.991 787.776 840.631 789.376 844.023 792.576C847.479 795.776 849.207 800.096 849.207 805.536V840H841.239V832.704H840.663C839.255 835.264 837.079 837.344 834.135 838.944C831.191 840.544 828.119 841.344 824.919 841.344ZM826.359 834.048C828.471 834.048 830.679 833.568 832.983 832.608C835.287 831.648 837.239 830.176 838.839 828.192C840.439 826.144 841.239 823.616 841.239 820.608V817.92H835.479C829.143 817.92 824.471 818.656 821.463 820.128C818.455 821.536 816.951 823.712 816.951 826.656C816.951 828.896 817.783 830.688 819.447 832.032C821.175 833.376 823.479 834.048 826.359 834.048ZM884.072 841.344C879.208 841.344 874.952 840.256 871.304 838.08C867.72 835.84 864.936 832.704 862.952 828.672C861.032 824.576 860.072 819.84 860.072 814.464C860.072 809.152 861.032 804.48 862.952 800.448C864.936 796.416 867.72 793.312 871.304 791.136C874.952 788.96 879.208 787.872 884.072 787.872C887.656 787.872 891.144 788.832 894.536 790.752C897.992 792.672 900.744 795.232 902.792 798.432L896.552 802.848C895.016 800.544 893.096 798.72 890.792 797.376C888.552 796.032 886.12 795.36 883.496 795.36C878.952 795.36 875.272 797.12 872.456 800.64C869.64 804.096 868.232 808.704 868.232 814.464C868.232 820.288 869.608 824.992 872.36 828.576C875.176 832.096 878.856 833.856 883.4 833.856C886.024 833.856 888.488 833.184 890.792 831.84C893.16 830.496 895.08 828.672 896.552 826.368L902.792 830.784C900.744 833.984 897.992 836.544 894.536 838.464C891.144 840.384 887.656 841.344 884.072 841.344ZM955.902 810.24C955.902 812.48 955.71 814.656 955.326 816.768H919.422C919.742 822.08 921.31 826.272 924.126 829.344C926.942 832.416 930.686 833.952 935.358 833.952C937.982 833.952 940.446 833.312 942.75 832.032C945.054 830.752 947.038 828.864 948.702 826.368L954.942 830.688C950.398 837.728 943.87 841.248 935.358 841.248C927.87 841.248 921.95 838.88 917.598 834.144C913.31 829.408 911.166 822.912 911.166 814.656C911.166 806.336 913.214 799.776 917.31 794.976C921.406 790.176 927.038 787.776 934.206 787.776C940.926 787.776 946.206 789.792 950.046 793.824C953.95 797.856 955.902 803.328 955.902 810.24ZM947.742 809.568C947.742 805.152 946.494 801.632 943.998 799.008C941.566 796.384 938.302 795.072 934.206 795.072C930.366 795.072 927.166 796.352 924.606 798.912C922.046 801.472 920.414 805.024 919.71 809.568H947.742ZM576.912 967V916.12H584.88V923.224H585.36C586.96 920.664 589.008 918.616 591.504 917.08C594.064 915.544 596.688 914.776 599.376 914.776C602.64 914.776 605.488 915.672 607.92 917.464C610.352 919.256 612.272 921.848 613.68 925.24H614.16C615.888 921.976 618.224 919.416 621.168 917.56C624.112 915.704 627.408 914.776 631.056 914.776C636.432 914.776 640.624 916.536 643.632 920.056C646.64 923.576 648.144 928.472 648.144 934.744V967H640.176V935.896C640.176 931.736 639.184 928.408 637.2 925.912C635.216 923.352 632.592 922.072 629.328 922.072C625.488 922.072 622.384 923.416 620.016 926.104C617.712 928.792 616.56 932.376 616.56 936.856V967H608.496V935.896C608.496 931.736 607.504 928.408 605.52 925.912C603.536 923.352 600.944 922.072 597.744 922.072C593.904 922.072 590.8 923.448 588.432 926.2C586.064 928.888 584.88 932.44 584.88 936.856V967H576.912ZM682.211 968.344C677.539 968.344 673.443 967.256 669.923 965.08C666.403 962.904 663.683 959.8 661.763 955.768C659.907 951.736 658.979 947 658.979 941.56C658.979 936.12 659.907 931.384 661.763 927.352C663.683 923.32 666.403 920.216 669.923 918.04C673.443 915.864 677.539 914.776 682.211 914.776C686.883 914.776 690.947 915.864 694.403 918.04C697.923 920.216 700.643 923.32 702.562 927.352C704.483 931.384 705.443 936.12 705.443 941.56C705.443 947 704.483 951.736 702.562 955.768C700.643 959.8 697.923 962.904 694.403 965.08C690.947 967.256 686.883 968.344 682.211 968.344ZM682.211 960.856C686.819 960.856 690.467 959.128 693.155 955.672C695.907 952.216 697.283 947.512 697.283 941.56C697.283 935.608 695.907 930.904 693.155 927.448C690.467 923.992 686.819 922.264 682.211 922.264C677.603 922.264 673.923 923.992 671.171 927.448C668.483 930.904 667.139 935.608 667.139 941.56C667.139 947.512 668.483 952.216 671.171 955.672C673.923 959.128 677.603 960.856 682.211 960.856ZM760.467 967H752.499V959.704H751.923C750.259 962.456 748.051 964.6 745.299 966.136C742.547 967.608 739.507 968.344 736.179 968.344C732.019 968.344 728.275 967.16 724.947 964.792C721.619 962.424 718.995 959.16 717.075 955C715.219 950.84 714.291 946.168 714.291 940.984C714.291 935.928 715.219 931.416 717.075 927.448C718.995 923.416 721.619 920.312 724.947 918.136C728.275 915.896 732.019 914.776 736.179 914.776C739.251 914.776 742.163 915.544 744.915 917.08C747.667 918.616 750.003 920.728 751.923 923.416H752.499V894.04H760.467V967ZM752.787 941.56C752.787 937.912 752.147 934.648 750.867 931.768C749.587 928.888 747.795 926.648 745.491 925.048C743.251 923.448 740.691 922.648 737.811 922.648C734.867 922.648 732.211 923.448 729.843 925.048C727.539 926.648 725.715 928.888 724.371 931.768C723.091 934.648 722.451 937.912 722.451 941.56C722.451 945.208 723.123 948.472 724.467 951.352C725.811 954.232 727.667 956.472 730.035 958.072C732.403 959.672 735.091 960.472 738.099 960.472C740.915 960.472 743.443 959.672 745.683 958.072C747.923 956.472 749.651 954.232 750.867 951.352C752.147 948.472 752.787 945.208 752.787 941.56ZM816.496 937.24C816.496 939.48 816.304 941.656 815.92 943.768H780.016C780.336 949.08 781.904 953.272 784.72 956.344C787.536 959.416 791.28 960.952 795.952 960.952C798.576 960.952 801.04 960.312 803.344 959.032C805.648 957.752 807.632 955.864 809.296 953.368L815.536 957.688C810.992 964.728 804.464 968.248 795.952 968.248C788.464 968.248 782.544 965.88 778.192 961.144C773.904 956.408 771.76 949.912 771.76 941.656C771.76 933.336 773.808 926.776 777.904 921.976C782 917.176 787.632 914.776 794.8 914.776C801.52 914.776 806.8 916.792 810.64 920.824C814.544 924.856 816.496 930.328 816.496 937.24ZM808.336 936.568C808.336 932.152 807.088 928.632 804.592 926.008C802.16 923.384 798.896 922.072 794.8 922.072C790.96 922.072 787.76 923.352 785.2 925.912C782.64 928.472 781.008 932.024 780.304 936.568H808.336ZM827.787 967V916.12H835.755V925.816H836.235C838.347 922.36 841.035 919.672 844.299 917.752C847.563 915.768 851.179 914.776 855.147 914.776H855.819V923.416H854.955C851.051 923.416 847.659 924.056 844.779 925.336C841.899 926.616 839.659 928.376 838.059 930.616C836.523 932.792 835.755 935.16 835.755 937.72V967H827.787ZM863.975 967V916.12H871.943V923.32H872.423C873.959 920.76 876.199 918.712 879.143 917.176C882.151 915.576 885.159 914.776 888.167 914.776C893.799 914.776 898.215 916.536 901.415 920.056C904.615 923.512 906.215 928.408 906.215 934.744V967H898.247V935.896C898.247 931.8 897.095 928.472 894.791 925.912C892.487 923.352 889.607 922.072 886.151 922.072C881.927 922.072 878.503 923.448 875.879 926.2C873.255 928.888 871.943 932.44 871.943 936.856V967H863.975ZM930.032 898.168C930.032 899.832 929.52 901.144 928.496 902.104C927.472 903.064 926.128 903.544 924.464 903.544C922.8 903.544 921.488 903.064 920.528 902.104C919.632 901.144 919.184 899.832 919.184 898.168C919.184 896.504 919.664 895.192 920.624 894.232C921.584 893.208 922.864 892.696 924.464 892.696C926.128 892.696 927.472 893.208 928.496 894.232C929.52 895.192 930.032 896.504 930.032 898.168ZM928.592 916.12V967H920.624V916.12H928.592ZM978.995 922.552L950.483 960.376H980.339V967.864H939.635V961.432L968.243 923.608H940.019V916.12H978.995V922.552ZM1003.79 968.344C998.866 968.344 994.93 967.064 991.986 964.504C989.106 961.88 987.666 958.424 987.666 954.136C987.666 943.128 996.05 937.624 1012.82 937.624H1020.11V933.496C1020.11 930.04 1019.06 927.288 1016.95 925.24C1014.83 923.128 1012.05 922.072 1008.59 922.072C1004.31 922.072 1000.02 923.928 995.73 927.64L991.026 922.264C996.146 917.272 1002.13 914.776 1008.98 914.776C1014.87 914.776 1019.51 916.376 1022.9 919.576C1026.35 922.776 1028.08 927.096 1028.08 932.536V967H1020.11V959.704H1019.54C1018.13 962.264 1015.95 964.344 1013.01 965.944C1010.07 967.544 1006.99 968.344 1003.79 968.344ZM1005.23 961.048C1007.35 961.048 1009.55 960.568 1011.86 959.608C1014.16 958.648 1016.11 957.176 1017.71 955.192C1019.31 953.144 1020.11 950.616 1020.11 947.608V944.92H1014.35C1008.02 944.92 1003.35 945.656 1000.34 947.128C997.33 948.536 995.826 950.712 995.826 953.656C995.826 955.896 996.658 957.688 998.322 959.032C1000.05 960.376 1002.35 961.048 1005.23 961.048ZM1067.08 923.608H1052.39V952.792C1052.39 955.608 1053.12 957.784 1054.6 959.32C1056.07 960.856 1058.12 961.624 1060.74 961.624C1062.28 961.624 1064 961.304 1065.92 960.664V967.96C1064.2 968.664 1061.92 969.016 1059.11 969.016C1054.37 969.016 1050.72 967.672 1048.16 964.984C1045.67 962.296 1044.42 958.424 1044.42 953.368V923.608H1036.45V916.12H1044.42V899.992H1052.39V916.12H1067.08V923.608ZM1086.22 898.168C1086.22 899.832 1085.71 901.144 1084.68 902.104C1083.66 903.064 1082.32 903.544 1080.65 903.544C1078.99 903.544 1077.68 903.064 1076.72 902.104C1075.82 901.144 1075.37 899.832 1075.37 898.168C1075.37 896.504 1075.85 895.192 1076.81 894.232C1077.77 893.208 1079.05 892.696 1080.65 892.696C1082.32 892.696 1083.66 893.208 1084.68 894.232C1085.71 895.192 1086.22 896.504 1086.22 898.168ZM1084.78 916.12V967H1076.81V916.12H1084.78ZM1120.4 968.344C1115.73 968.344 1111.63 967.256 1108.11 965.08C1104.59 962.904 1101.87 959.8 1099.95 955.768C1098.09 951.736 1097.17 947 1097.17 941.56C1097.17 936.12 1098.09 931.384 1099.95 927.352C1101.87 923.32 1104.59 920.216 1108.11 918.04C1111.63 915.864 1115.73 914.776 1120.4 914.776C1125.07 914.776 1129.13 915.864 1132.59 918.04C1136.11 920.216 1138.83 923.32 1140.75 927.352C1142.67 931.384 1143.63 936.12 1143.63 941.56C1143.63 947 1142.67 951.736 1140.75 955.768C1138.83 959.8 1136.11 962.904 1132.59 965.08C1129.13 967.256 1125.07 968.344 1120.4 968.344ZM1120.4 960.856C1125.01 960.856 1128.65 959.128 1131.34 955.672C1134.09 952.216 1135.47 947.512 1135.47 941.56C1135.47 935.608 1134.09 930.904 1131.34 927.448C1128.65 923.992 1125.01 922.264 1120.4 922.264C1115.79 922.264 1112.11 923.992 1109.36 927.448C1106.67 930.904 1105.33 935.608 1105.33 941.56C1105.33 947.512 1106.67 952.216 1109.36 955.672C1112.11 959.128 1115.79 960.856 1120.4 960.856ZM1154.97 967V916.12H1162.94V923.32H1163.42C1164.96 920.76 1167.2 918.712 1170.14 917.176C1173.15 915.576 1176.16 914.776 1179.17 914.776C1184.8 914.776 1189.21 916.536 1192.41 920.056C1195.61 923.512 1197.21 928.408 1197.21 934.744V967H1189.25V935.896C1189.25 931.8 1188.09 928.472 1185.79 925.912C1183.49 923.352 1180.61 922.072 1177.15 922.072C1172.93 922.072 1169.5 923.448 1166.88 926.2C1164.25 928.888 1162.94 932.44 1162.94 936.856V967H1154.97ZM590.544 1095.34C585.616 1095.34 581.68 1094.06 578.736 1091.5C575.856 1088.88 574.416 1085.42 574.416 1081.14C574.416 1070.13 582.8 1064.62 599.568 1064.62H606.864V1060.5C606.864 1057.04 605.808 1054.29 603.696 1052.24C601.584 1050.13 598.8 1049.07 595.344 1049.07C591.056 1049.07 586.768 1050.93 582.48 1054.64L577.776 1049.26C582.896 1044.27 588.88 1041.78 595.728 1041.78C601.616 1041.78 606.256 1043.38 609.648 1046.58C613.104 1049.78 614.832 1054.1 614.832 1059.54V1094H606.864V1086.7H606.288C604.88 1089.26 602.704 1091.34 599.76 1092.94C596.816 1094.54 593.744 1095.34 590.544 1095.34ZM591.984 1088.05C594.096 1088.05 596.304 1087.57 598.608 1086.61C600.912 1085.65 602.864 1084.18 604.464 1082.19C606.064 1080.14 606.864 1077.62 606.864 1074.61V1071.92H601.104C594.768 1071.92 590.096 1072.66 587.088 1074.13C584.08 1075.54 582.576 1077.71 582.576 1080.66C582.576 1082.9 583.408 1084.69 585.072 1086.03C586.8 1087.38 589.104 1088.05 591.984 1088.05ZM628.193 1094V1043.12H636.161V1050.32H636.641C638.177 1047.76 640.417 1045.71 643.361 1044.18C646.369 1042.58 649.377 1041.78 652.385 1041.78C658.017 1041.78 662.433 1043.54 665.633 1047.06C668.833 1050.51 670.433 1055.41 670.433 1061.74V1094H662.465V1062.9C662.465 1058.8 661.313 1055.47 659.009 1052.91C656.705 1050.35 653.825 1049.07 650.369 1049.07C646.145 1049.07 642.721 1050.45 640.097 1053.2C637.473 1055.89 636.161 1059.44 636.161 1063.86V1094H628.193ZM727.467 1094H719.499V1086.7H718.923C717.259 1089.46 715.051 1091.6 712.299 1093.14C709.547 1094.61 706.507 1095.34 703.179 1095.34C699.019 1095.34 695.275 1094.16 691.947 1091.79C688.619 1089.42 685.995 1086.16 684.075 1082C682.219 1077.84 681.291 1073.17 681.291 1067.98C681.291 1062.93 682.219 1058.42 684.075 1054.45C685.995 1050.42 688.619 1047.31 691.947 1045.14C695.275 1042.9 699.019 1041.78 703.179 1041.78C706.251 1041.78 709.163 1042.54 711.915 1044.08C714.667 1045.62 717.003 1047.73 718.923 1050.42H719.499V1021.04H727.467V1094ZM719.787 1068.56C719.787 1064.91 719.147 1061.65 717.867 1058.77C716.587 1055.89 714.795 1053.65 712.491 1052.05C710.251 1050.45 707.691 1049.65 704.811 1049.65C701.867 1049.65 699.211 1050.45 696.843 1052.05C694.539 1053.65 692.715 1055.89 691.371 1058.77C690.091 1061.65 689.451 1064.91 689.451 1068.56C689.451 1072.21 690.123 1075.47 691.467 1078.35C692.811 1081.23 694.667 1083.47 697.035 1085.07C699.403 1086.67 702.091 1087.47 705.099 1087.47C707.915 1087.47 710.443 1086.67 712.683 1085.07C714.923 1083.47 716.651 1081.23 717.867 1078.35C719.147 1075.47 719.787 1072.21 719.787 1068.56ZM817.902 1064.24C817.902 1066.48 817.71 1068.66 817.326 1070.77H781.422C781.742 1076.08 783.31 1080.27 786.126 1083.34C788.942 1086.42 792.686 1087.95 797.358 1087.95C799.982 1087.95 802.446 1087.31 804.75 1086.03C807.054 1084.75 809.038 1082.86 810.702 1080.37L816.942 1084.69C812.398 1091.73 805.87 1095.25 797.358 1095.25C789.87 1095.25 783.95 1092.88 779.598 1088.14C775.31 1083.41 773.166 1076.91 773.166 1068.66C773.166 1060.34 775.214 1053.78 779.31 1048.98C783.406 1044.18 789.038 1041.78 796.206 1041.78C802.926 1041.78 808.206 1043.79 812.046 1047.82C815.95 1051.86 817.902 1057.33 817.902 1064.24ZM809.742 1063.57C809.742 1059.15 808.494 1055.63 805.998 1053.01C803.566 1050.38 800.302 1049.07 796.206 1049.07C792.366 1049.07 789.166 1050.35 786.606 1052.91C784.046 1055.47 782.414 1059.02 781.71 1063.57H809.742ZM849.389 1068.27L867.245 1094H857.549L844.493 1074.13L831.245 1094H821.645L840.077 1067.5L822.893 1043.12H832.493L845.165 1062.13L857.261 1043.12H866.669L849.389 1068.27ZM875.037 1116.94V1043.12H883.005V1050.42H883.485C885.405 1047.73 887.741 1045.62 890.493 1044.08C893.309 1042.54 896.317 1041.78 899.517 1041.78C903.613 1041.78 907.293 1042.9 910.557 1045.14C913.885 1047.31 916.477 1050.38 918.333 1054.35C920.189 1058.26 921.117 1062.67 921.117 1067.6C921.117 1072.91 920.189 1077.68 918.333 1081.9C916.477 1086.06 913.885 1089.33 910.557 1091.7C907.293 1094.06 903.613 1095.25 899.517 1095.25C896.061 1095.25 892.957 1094.51 890.205 1093.04C887.517 1091.57 885.277 1089.46 883.485 1086.7H883.005V1116.94H875.037ZM882.621 1068.56C882.621 1072.21 883.229 1075.47 884.445 1078.35C885.725 1081.23 887.485 1083.47 889.725 1085.07C891.965 1086.67 894.525 1087.47 897.405 1087.47C900.413 1087.47 903.101 1086.67 905.469 1085.07C907.837 1083.47 909.693 1081.23 911.037 1078.35C912.381 1075.47 913.053 1072.21 913.053 1068.56C913.053 1064.91 912.381 1061.65 911.037 1058.77C909.757 1055.89 907.933 1053.65 905.565 1052.05C903.261 1050.45 900.637 1049.65 897.693 1049.65C894.813 1049.65 892.221 1050.45 889.917 1052.05C887.613 1053.65 885.821 1055.89 884.541 1058.77C883.261 1061.65 882.621 1064.91 882.621 1068.56ZM974.652 1064.24C974.652 1066.48 974.46 1068.66 974.076 1070.77H938.172C938.492 1076.08 940.06 1080.27 942.876 1083.34C945.692 1086.42 949.436 1087.95 954.108 1087.95C956.732 1087.95 959.196 1087.31 961.5 1086.03C963.804 1084.75 965.788 1082.86 967.452 1080.37L973.692 1084.69C969.148 1091.73 962.62 1095.25 954.108 1095.25C946.62 1095.25 940.7 1092.88 936.348 1088.14C932.06 1083.41 929.916 1076.91 929.916 1068.66C929.916 1060.34 931.964 1053.78 936.06 1048.98C940.156 1044.18 945.788 1041.78 952.956 1041.78C959.676 1041.78 964.956 1043.79 968.796 1047.82C972.7 1051.86 974.652 1057.33 974.652 1064.24ZM966.492 1063.57C966.492 1059.15 965.244 1055.63 962.748 1053.01C960.316 1050.38 957.052 1049.07 952.956 1049.07C949.116 1049.07 945.916 1050.35 943.356 1052.91C940.796 1055.47 939.164 1059.02 938.46 1063.57H966.492ZM985.943 1094V1043.12H993.911V1052.82H994.391C996.503 1049.36 999.191 1046.67 1002.46 1044.75C1005.72 1042.77 1009.34 1041.78 1013.3 1041.78H1013.98V1050.42H1013.11C1009.21 1050.42 1005.82 1051.06 1002.94 1052.34C1000.06 1053.62 997.815 1055.38 996.215 1057.62C994.679 1059.79 993.911 1062.16 993.911 1064.72V1094H985.943ZM1032.59 1025.17C1032.59 1026.83 1032.08 1028.14 1031.06 1029.1C1030.03 1030.06 1028.69 1030.54 1027.03 1030.54C1025.36 1030.54 1024.05 1030.06 1023.09 1029.1C1022.19 1028.14 1021.75 1026.83 1021.75 1025.17C1021.75 1023.5 1022.23 1022.19 1023.19 1021.23C1024.15 1020.21 1025.43 1019.7 1027.03 1019.7C1028.69 1019.7 1030.03 1020.21 1031.06 1021.23C1032.08 1022.19 1032.59 1023.5 1032.59 1025.17ZM1031.15 1043.12V1094H1023.19V1043.12H1031.15ZM1088.28 1064.24C1088.28 1066.48 1088.09 1068.66 1087.7 1070.77H1051.8C1052.12 1076.08 1053.69 1080.27 1056.5 1083.34C1059.32 1086.42 1063.06 1087.95 1067.73 1087.95C1070.36 1087.95 1072.82 1087.31 1075.13 1086.03C1077.43 1084.75 1079.41 1082.86 1081.08 1080.37L1087.32 1084.69C1082.77 1091.73 1076.25 1095.25 1067.73 1095.25C1060.25 1095.25 1054.33 1092.88 1049.97 1088.14C1045.69 1083.41 1043.54 1076.91 1043.54 1068.66C1043.54 1060.34 1045.59 1053.78 1049.69 1048.98C1053.78 1044.18 1059.41 1041.78 1066.58 1041.78C1073.3 1041.78 1078.58 1043.79 1082.42 1047.82C1086.33 1051.86 1088.28 1057.33 1088.28 1064.24ZM1080.12 1063.57C1080.12 1059.15 1078.87 1055.63 1076.37 1053.01C1073.94 1050.38 1070.68 1049.07 1066.58 1049.07C1062.74 1049.07 1059.54 1050.35 1056.98 1052.91C1054.42 1055.47 1052.79 1059.02 1052.09 1063.57H1080.12ZM1099.57 1094V1043.12H1107.54V1050.32H1108.02C1109.55 1047.76 1111.79 1045.71 1114.74 1044.18C1117.74 1042.58 1120.75 1041.78 1123.76 1041.78C1129.39 1041.78 1133.81 1043.54 1137.01 1047.06C1140.21 1050.51 1141.81 1055.41 1141.81 1061.74V1094H1133.84V1062.9C1133.84 1058.8 1132.69 1055.47 1130.38 1052.91C1128.08 1050.35 1125.2 1049.07 1121.74 1049.07C1117.52 1049.07 1114.1 1050.45 1111.47 1053.2C1108.85 1055.89 1107.54 1059.44 1107.54 1063.86V1094H1099.57ZM1176.67 1095.34C1171.8 1095.34 1167.55 1094.26 1163.9 1092.08C1160.31 1089.84 1157.53 1086.7 1155.55 1082.67C1153.63 1078.58 1152.67 1073.84 1152.67 1068.46C1152.67 1063.15 1153.63 1058.48 1155.55 1054.45C1157.53 1050.42 1160.31 1047.31 1163.9 1045.14C1167.55 1042.96 1171.8 1041.87 1176.67 1041.87C1180.25 1041.87 1183.74 1042.83 1187.13 1044.75C1190.59 1046.67 1193.34 1049.23 1195.39 1052.43L1189.15 1056.85C1187.61 1054.54 1185.69 1052.72 1183.39 1051.38C1181.15 1050.03 1178.71 1049.36 1176.09 1049.36C1171.55 1049.36 1167.87 1051.12 1165.05 1054.64C1162.23 1058.1 1160.83 1062.7 1160.83 1068.46C1160.83 1074.29 1162.2 1078.99 1164.95 1082.58C1167.77 1086.1 1171.45 1087.86 1175.99 1087.86C1178.62 1087.86 1181.08 1087.18 1183.39 1085.84C1185.75 1084.5 1187.67 1082.67 1189.15 1080.37L1195.39 1084.78C1193.34 1087.98 1190.59 1090.54 1187.13 1092.46C1183.74 1094.38 1180.25 1095.34 1176.67 1095.34ZM1248.5 1064.24C1248.5 1066.48 1248.3 1068.66 1247.92 1070.77H1212.02C1212.34 1076.08 1213.9 1080.27 1216.72 1083.34C1219.54 1086.42 1223.28 1087.95 1227.95 1087.95C1230.58 1087.95 1233.04 1087.31 1235.34 1086.03C1237.65 1084.75 1239.63 1082.86 1241.3 1080.37L1247.54 1084.69C1242.99 1091.73 1236.46 1095.25 1227.95 1095.25C1220.46 1095.25 1214.54 1092.88 1210.19 1088.14C1205.9 1083.41 1203.76 1076.91 1203.76 1068.66C1203.76 1060.34 1205.81 1053.78 1209.9 1048.98C1214 1044.18 1219.63 1041.78 1226.8 1041.78C1233.52 1041.78 1238.8 1043.79 1242.64 1047.82C1246.54 1051.86 1248.5 1057.33 1248.5 1064.24ZM1240.34 1063.57C1240.34 1059.15 1239.09 1055.63 1236.59 1053.01C1234.16 1050.38 1230.9 1049.07 1226.8 1049.07C1222.96 1049.07 1219.76 1050.35 1217.2 1052.91C1214.64 1055.47 1213.01 1059.02 1212.3 1063.57H1240.34ZM597.648 1222.34C592.976 1222.34 588.88 1221.26 585.36 1219.08C581.84 1216.9 579.12 1213.8 577.2 1209.77C575.344 1205.74 574.416 1201 574.416 1195.56C574.416 1190.12 575.344 1185.38 577.2 1181.35C579.12 1177.32 581.84 1174.22 585.36 1172.04C588.88 1169.86 592.976 1168.78 597.648 1168.78C602.32 1168.78 606.384 1169.86 609.84 1172.04C613.36 1174.22 616.08 1177.32 618 1181.35C619.92 1185.38 620.88 1190.12 620.88 1195.56C620.88 1201 619.92 1205.74 618 1209.77C616.08 1213.8 613.36 1216.9 609.84 1219.08C606.384 1221.26 602.32 1222.34 597.648 1222.34ZM597.648 1214.86C602.256 1214.86 605.904 1213.13 608.592 1209.67C611.344 1206.22 612.72 1201.51 612.72 1195.56C612.72 1189.61 611.344 1184.9 608.592 1181.45C605.904 1177.99 602.256 1176.26 597.648 1176.26C593.04 1176.26 589.36 1177.99 586.608 1181.45C583.92 1184.9 582.576 1189.61 582.576 1195.56C582.576 1201.51 583.92 1206.22 586.608 1209.67C589.36 1213.13 593.04 1214.86 597.648 1214.86ZM632.225 1243.94V1170.12H640.193V1177.42H640.673C642.593 1174.73 644.929 1172.62 647.681 1171.08C650.497 1169.54 653.505 1168.78 656.705 1168.78C660.801 1168.78 664.481 1169.9 667.745 1172.14C671.073 1174.31 673.665 1177.38 675.521 1181.35C677.377 1185.26 678.305 1189.67 678.305 1194.6C678.305 1199.91 677.377 1204.68 675.521 1208.9C673.665 1213.06 671.073 1216.33 667.745 1218.7C664.481 1221.06 660.801 1222.25 656.705 1222.25C653.249 1222.25 650.145 1221.51 647.393 1220.04C644.705 1218.57 642.465 1216.46 640.673 1213.7H640.193V1243.94H632.225ZM639.809 1195.56C639.809 1199.21 640.417 1202.47 641.633 1205.35C642.913 1208.23 644.673 1210.47 646.913 1212.07C649.153 1213.67 651.713 1214.47 654.593 1214.47C657.601 1214.47 660.289 1213.67 662.657 1212.07C665.025 1210.47 666.881 1208.23 668.225 1205.35C669.569 1202.47 670.241 1199.21 670.241 1195.56C670.241 1191.91 669.569 1188.65 668.225 1185.77C666.945 1182.89 665.121 1180.65 662.753 1179.05C660.449 1177.45 657.825 1176.65 654.881 1176.65C652.001 1176.65 649.409 1177.45 647.105 1179.05C644.801 1180.65 643.009 1182.89 641.729 1185.77C640.449 1188.65 639.809 1191.91 639.809 1195.56ZM715.232 1177.61H700.544V1206.79C700.544 1209.61 701.28 1211.78 702.752 1213.32C704.224 1214.86 706.272 1215.62 708.896 1215.62C710.432 1215.62 712.16 1215.3 714.08 1214.66V1221.96C712.352 1222.66 710.08 1223.02 707.264 1223.02C702.528 1223.02 698.88 1221.67 696.32 1218.98C693.824 1216.3 692.576 1212.42 692.576 1207.37V1177.61H684.608V1170.12H692.576V1153.99H700.544V1170.12H715.232V1177.61ZM734.376 1152.17C734.376 1153.83 733.864 1155.14 732.84 1156.1C731.816 1157.06 730.472 1157.54 728.808 1157.54C727.144 1157.54 725.832 1157.06 724.872 1156.1C723.976 1155.14 723.528 1153.83 723.528 1152.17C723.528 1150.5 724.008 1149.19 724.968 1148.23C725.928 1147.21 727.208 1146.7 728.808 1146.7C730.472 1146.7 731.816 1147.21 732.84 1148.23C733.864 1149.19 734.376 1150.5 734.376 1152.17ZM732.936 1170.12V1221H724.968V1170.12H732.936ZM747.818 1221V1170.12H755.786V1177.22H756.266C757.866 1174.66 759.914 1172.62 762.41 1171.08C764.97 1169.54 767.594 1168.78 770.282 1168.78C773.546 1168.78 776.394 1169.67 778.826 1171.46C781.258 1173.26 783.178 1175.85 784.586 1179.24H785.066C786.794 1175.98 789.13 1173.42 792.074 1171.56C795.018 1169.7 798.314 1168.78 801.962 1168.78C807.338 1168.78 811.53 1170.54 814.538 1174.06C817.546 1177.58 819.05 1182.47 819.05 1188.74V1221H811.082V1189.9C811.082 1185.74 810.09 1182.41 808.106 1179.91C806.122 1177.35 803.498 1176.07 800.234 1176.07C796.394 1176.07 793.29 1177.42 790.922 1180.1C788.618 1182.79 787.466 1186.38 787.466 1190.86V1221H779.402V1189.9C779.402 1185.74 778.41 1182.41 776.426 1179.91C774.442 1177.35 771.85 1176.07 768.65 1176.07C764.81 1176.07 761.706 1177.45 759.338 1180.2C756.97 1182.89 755.786 1186.44 755.786 1190.86V1221H747.818ZM842.845 1152.17C842.845 1153.83 842.333 1155.14 841.309 1156.1C840.285 1157.06 838.941 1157.54 837.277 1157.54C835.613 1157.54 834.301 1157.06 833.341 1156.1C832.445 1155.14 831.997 1153.83 831.997 1152.17C831.997 1150.5 832.477 1149.19 833.437 1148.23C834.397 1147.21 835.677 1146.7 837.277 1146.7C838.941 1146.7 840.285 1147.21 841.309 1148.23C842.333 1149.19 842.845 1150.5 842.845 1152.17ZM841.405 1170.12V1221H833.437V1170.12H841.405ZM891.807 1176.55L863.295 1214.38H893.151V1221.86H852.447V1215.43L881.055 1177.61H852.831V1170.12H891.807V1176.55ZM916.607 1222.34C911.679 1222.34 907.743 1221.06 904.799 1218.5C901.919 1215.88 900.479 1212.42 900.479 1208.14C900.479 1197.13 908.863 1191.62 925.631 1191.62H932.927V1187.5C932.927 1184.04 931.871 1181.29 929.759 1179.24C927.647 1177.13 924.863 1176.07 921.406 1176.07C917.119 1176.07 912.831 1177.93 908.543 1181.64L903.839 1176.26C908.959 1171.27 914.943 1168.78 921.791 1168.78C927.679 1168.78 932.319 1170.38 935.711 1173.58C939.167 1176.78 940.895 1181.1 940.895 1186.54V1221H932.927V1213.7H932.351C930.943 1216.26 928.767 1218.34 925.823 1219.94C922.878 1221.54 919.807 1222.34 916.607 1222.34ZM918.047 1215.05C920.159 1215.05 922.367 1214.57 924.671 1213.61C926.975 1212.65 928.927 1211.18 930.527 1209.19C932.127 1207.14 932.927 1204.62 932.927 1201.61V1198.92H927.167C920.831 1198.92 916.159 1199.66 913.151 1201.13C910.143 1202.54 908.639 1204.71 908.639 1207.66C908.639 1209.9 909.471 1211.69 911.135 1213.03C912.863 1214.38 915.167 1215.05 918.047 1215.05ZM979.888 1177.61H965.2V1206.79C965.2 1209.61 965.936 1211.78 967.408 1213.32C968.88 1214.86 970.928 1215.62 973.552 1215.62C975.088 1215.62 976.816 1215.3 978.736 1214.66V1221.96C977.008 1222.66 974.736 1223.02 971.92 1223.02C967.184 1223.02 963.536 1221.67 960.976 1218.98C958.48 1216.3 957.232 1212.42 957.232 1207.37V1177.61H949.264V1170.12H957.232V1153.99H965.2V1170.12H979.888V1177.61ZM999.032 1152.17C999.032 1153.83 998.52 1155.14 997.496 1156.1C996.472 1157.06 995.128 1157.54 993.464 1157.54C991.8 1157.54 990.488 1157.06 989.528 1156.1C988.632 1155.14 988.184 1153.83 988.184 1152.17C988.184 1150.5 988.664 1149.19 989.624 1148.23C990.584 1147.21 991.864 1146.7 993.464 1146.7C995.128 1146.7 996.472 1147.21 997.496 1148.23C998.52 1149.19 999.032 1150.5 999.032 1152.17ZM997.592 1170.12V1221H989.624V1170.12H997.592ZM1033.21 1222.34C1028.54 1222.34 1024.44 1221.26 1020.92 1219.08C1017.4 1216.9 1014.68 1213.8 1012.76 1209.77C1010.91 1205.74 1009.98 1201 1009.98 1195.56C1009.98 1190.12 1010.91 1185.38 1012.76 1181.35C1014.68 1177.32 1017.4 1174.22 1020.92 1172.04C1024.44 1169.86 1028.54 1168.78 1033.21 1168.78C1037.88 1168.78 1041.95 1169.86 1045.4 1172.04C1048.92 1174.22 1051.64 1177.32 1053.56 1181.35C1055.48 1185.38 1056.44 1190.12 1056.44 1195.56C1056.44 1201 1055.48 1205.74 1053.56 1209.77C1051.64 1213.8 1048.92 1216.9 1045.4 1219.08C1041.95 1221.26 1037.88 1222.34 1033.21 1222.34ZM1033.21 1214.86C1037.82 1214.86 1041.47 1213.13 1044.15 1209.67C1046.91 1206.22 1048.28 1201.51 1048.28 1195.56C1048.28 1189.61 1046.91 1184.9 1044.15 1181.45C1041.47 1177.99 1037.82 1176.26 1033.21 1176.26C1028.6 1176.26 1024.92 1177.99 1022.17 1181.45C1019.48 1184.9 1018.14 1189.61 1018.14 1195.56C1018.14 1201.51 1019.48 1206.22 1022.17 1209.67C1024.92 1213.13 1028.6 1214.86 1033.21 1214.86ZM1067.79 1221V1170.12H1075.76V1177.32H1076.24C1077.77 1174.76 1080.01 1172.71 1082.96 1171.18C1085.96 1169.58 1088.97 1168.78 1091.98 1168.78C1097.61 1168.78 1102.03 1170.54 1105.23 1174.06C1108.43 1177.51 1110.03 1182.41 1110.03 1188.74V1221H1102.06V1189.9C1102.06 1185.8 1100.91 1182.47 1098.6 1179.91C1096.3 1177.35 1093.42 1176.07 1089.96 1176.07C1085.74 1176.07 1082.32 1177.45 1079.69 1180.2C1077.07 1182.89 1075.76 1186.44 1075.76 1190.86V1221H1067.79Z" fill="white"/>
<defs>
<radialGradient id="paint0_radial_369_1416" cx="0" cy="0" r="1" gradientUnits="userSpaceOnUse" gradientTransform="translate(107 86) rotate(53.162) scale(1078.3)">
<stop stop-color="#3AE23A"/>
<stop offset="1" stop-color="#D5F51E"/>
</radialGradient>
</defs>
</svg>
